C:\Users\israe\Dropbox\PhDWork\Simulation\code\PassiveMoments\Data/emgFiles.mot
nRows=11
nColumns=40

name C:\Users\israe\Dropbox\PhDWork\Simulation\code\PassiveMoments\Data/emgFiles.mot
datacolumns 40
datarows 11
range 1.4600000000 1.5600000000
endheader
time	addbrev	addlong	addmagDist	addmagIsch	addmagMid	addmagProx	bflh	bfsh	edl	ehl	fdl	fhl	gaslat	gasmed	glmax1	glmax2	glmax3	glmed1	glmed2	glmed3	glmin1	glmin2	glmin3	grac	iliacus	perbrev	perlong	psoas	recfem	sart	semimem	semiten	soleus	tfl	tibant	tibpost	vasint	vaslat	vasmed
        1.4600000000	        0.0908076230	        0.0908076230	        0.0000000000	        0.0000000000	        0.0000000000	        0.0000000000	        0.0000000000	        0.1354385445	        0.2930632168	        0.3381993179	        0.0000000000	        0.0000000000	        0.0000000000	        0.0000000000	        0.0000000000	        0.0000000000	        0.0000000000	        0.0000000000	        0.0000000000	        0.0000000000	        0.0000000000	        0.0000000000	        0.0000000000	        0.1124368519	        0.1482957964	        0.0000000000	        0.0000000000	        0.1482957964	        0.0002814942	        0.0851192989	        0.0000000000	        0.0000000000	        0.0000000000	        0.0000000000	        0.3145407547	        0.0000000000	        0.0000000000	        0.0000000000	        0.0000000000	
        1.4700000000	        0.1041880333	        0.1041880333	        0.0000000000	        0.0000000000	        0.0000000000	        0.0000000000	        0.0000000000	        0.1493745730	        0.2958820216	        0.3454226631	        0.0000000000	        0.0000000000	        0.0000000000	        0.0000000000	        0.0000000000	        0.0000000000	        0.0000000000	        0.0000000000	        0.0000000000	        0.0000000000	        0.0000000000	        0.0000000000	        0.0000000000	        0.1335458392	        0.1395003400	        0.0000000000	        0.0000000000	        0.1395003400	        0.0000000000	        0.0622395152	        0.0000000000	        0.0000000000	        0.0000000000	        0.0000000000	        0.3278957757	        0.0000000000	        0.0000000000	        0.0000000000	        0.0000000000	
        1.4800000000	        0.1246485491	        0.1246485491	        0.0000000000	        0.0000000000	        0.0000000000	        0.0000000000	        0.0000000000	        0.1598655456	        0.2975226975	        0.3556329366	        0.0000000000	        0.0000000000	        0.0000000000	        0.0000000000	        0.0000000000	        0.0000000000	        0.0000000000	        0.0000000000	        0.0000000000	        0.0000000000	        0.0000000000	        0.0000000000	        0.0000000000	        0.1519569084	        0.1267948232	        0.0000000000	        0.0000000000	        0.1267948232	        0.0000000000	        0.0412747545	        0.0000000000	        0.0000000000	        0.0000000000	        0.0000000000	        0.3409805308	        0.0000000000	        0.0000000000	        0.0000000000	        0.0000000000	
        1.4900000000	        0.1432484646	        0.1432484646	        0.0000000000	        0.0000000000	        0.0000000000	        0.0000000000	        0.0000000000	        0.1707888522	        0.2961822057	        0.3667465904	        0.0000000000	        0.0000000000	        0.0000000000	        0.0000000000	        0.0000000000	        0.0000000000	        0.0000000000	        0.0000000000	        0.0000000000	        0.0000000000	        0.0000000000	        0.0000000000	        0.0000000000	        0.1685097760	        0.0975770428	        0.0000000000	        0.0000000000	        0.0975770428	        0.0000000000	        0.0246182879	        0.0000000000	        0.0000000000	        0.0000000000	        0.0000000000	        0.3505850433	        0.0000000000	        0.0000000000	        0.0000000000	        0.0000000000	
        1.5000000000	        0.1483129674	        0.1483129674	        0.0000000000	        0.0000000000	        0.0000000000	        0.0000000000	        0.0000000000	        0.1813050488	        0.2912435448	        0.3717870119	        0.0000000000	        0.0000000000	        0.0000000000	        0.0000000000	        0.0000000000	        0.0000000000	        0.0000000000	        0.0000000000	        0.0000000000	        0.0000000000	        0.0000000000	        0.0000000000	        0.0000000000	        0.1826761716	        0.0687333424	        0.0000000000	        0.0000000000	        0.0687333424	        0.0000000000	        0.0073501357	        0.0000000000	        0.0000000000	        0.0000000000	        0.0000000000	        0.3518839204	        0.0000000000	        0.0000000000	        0.0000000000	        0.0000000000	
        1.5100000000	        0.1510625872	        0.1510625872	        0.0000000000	        0.0000000000	        0.0000000000	        0.0000000000	        0.0000000000	        0.1830796246	        0.2829761184	        0.3689998890	        0.0000000000	        0.0000000000	        0.0000000000	        0.0000000000	        0.0000000000	        0.0000000000	        0.0000000000	        0.0000000000	        0.0000000000	        0.0000000000	        0.0000000000	        0.0000000000	        0.0000000000	        0.1920348496	        0.0455289159	        0.0000000000	        0.0000000000	        0.0455289159	        0.0000000000	        0.0003439262	        0.0000000000	        0.0000000000	        0.0000000000	        0.0000000000	        0.3465418711	        0.0000000000	        0.0000000000	        0.0000000000	        0.0000000000	
        1.5200000000	        0.1493172227	        0.1493172227	        0.0000000000	        0.0000000000	        0.0000000000	        0.0000000000	        0.0000000000	        0.1825373127	        0.2749668520	        0.3571801797	        0.0000000000	        0.0000000000	        0.0000000000	        0.0000000000	        0.0000000000	        0.0000000000	        0.0000000000	        0.0000000000	        0.0000000000	        0.0000000000	        0.0000000000	        0.0000000000	        0.0000000000	        0.1947175103	        0.0265755842	        0.0000000000	        0.0000000000	        0.0265755842	        0.0000000000	       -0.0002413479	        0.0000000000	        0.0000000000	        0.0000000000	        0.0000000000	        0.3358936650	        0.0000000000	        0.0000000000	        0.0000000000	        0.0000000000	
        1.5300000000	        0.1367359597	        0.1367359597	        0.0000000000	        0.0000000000	        0.0000000000	        0.0000000000	        0.0000000000	        0.1809521870	        0.2672996512	        0.3387925996	        0.0000000000	        0.0000000000	        0.0000000000	        0.0000000000	        0.0000000000	        0.0000000000	        0.0000000000	        0.0000000000	        0.0000000000	        0.0000000000	        0.0000000000	        0.0000000000	        0.0000000000	        0.1927169036	        0.0096596826	        0.0000000000	        0.0000000000	        0.0096596826	        0.0000000000	        0.0000000000	        0.0000000000	        0.0000000000	        0.0000000000	        0.0000000000	        0.3230843263	        0.0000000000	        0.0000000000	        0.0000000000	        0.0000000000	
        1.5400000000	        0.1072944898	        0.1072944898	        0.0000000000	        0.0000000000	        0.0000000000	        0.0000000000	        0.0000000000	        0.1786409151	        0.2588818588	        0.3210441231	        0.0000000000	        0.0000000000	        0.0000000000	        0.0000000000	        0.0000000000	        0.0000000000	        0.0000000000	        0.0000000000	        0.0000000000	        0.0000000000	        0.0000000000	        0.0000000000	        0.0000000000	        0.1779613530	        0.0003566549	        0.0000000000	        0.0000000000	        0.0003566549	        0.0000000000	        0.0000000000	        0.0000000000	        0.0000000000	        0.0000000000	        0.0000000000	        0.3075081347	        0.0000000000	        0.0000000000	        0.0000000000	        0.0000000000	
        1.5500000000	        0.0766839468	        0.0766839468	        0.0000000000	        0.0000000000	        0.0000000000	        0.0000000000	        0.0000000000	        0.1682660276	        0.2506494839	        0.3022543847	        0.0000000000	        0.0000000000	        0.0000000000	        0.0000000000	        0.0000000000	        0.0000000000	        0.0000000000	        0.0000000000	        0.0000000000	        0.0000000000	        0.0000000000	        0.0000000000	        0.0000000000	        0.1535047709	        0.0000000000	        0.0000000000	        0.0000000000	        0.0000000000	        0.0000000000	        0.0000000000	        0.0000000000	        0.0000000000	        0.0000000000	        0.0000000000	        0.2888763981	        0.0000000000	        0.0000000000	        0.0000000000	        0.0000000000	
        1.5600000000	        0.0534541667	        0.0534541667	        0.0000000000	        0.0000000000	        0.0000000000	        0.0000000000	        0.0000000000	        0.1521485386	        0.2426581120	        0.2865404191	        0.0000000000	        0.0000000000	        0.0000000000	        0.0000000000	        0.0000000000	        0.0000000000	        0.0000000000	        0.0000000000	        0.0000000000	        0.0000000000	        0.0000000000	        0.0000000000	        0.0000000000	        0.1220332019	        0.0000000000	        0.0000000000	        0.0000000000	        0.0000000000	        0.0000000000	        0.0000000000	        0.0000000000	        0.0000000000	        0.0000000000	        0.0000000000	        0.2696295850	        0.0000000000	        0.0000000000	        0.0000000000	        0.0000000000	
